<?xml version="1.0" standalone="no"?>
<!DOCTYPE svg PUBLIC "-//W3C//DTD SVG 20010904//EN"
 "http://www.w3.org/TR/2001/REC-SVG-20010904/DTD/svg10.dtd">
<svg version="1.0" xmlns="http://www.w3.org/2000/svg"
 width="515.000000pt" height="514.000000pt" viewBox="0 0 515.000000 514.000000"
 preserveAspectRatio="xMidYMid meet">

<g transform="translate(0.000000,514.000000) scale(0.100000,-0.100000)"
fill="#000000" stroke="none">
<path d="M2235 5129 c-1032 -107 -1885 -859 -2151 -1895 -60 -238 -78 -386
-78 -664 1 -278 18 -429 78 -664 120 -466 376 -905 717 -1232 735 -702 1802
-871 2704 -429 436 213 801 551 1051 974 50 86 50 86 147 138 158 85 436 282
437 311 0 23 -21 12 -93 -46 -115 -94 -391 -272 -402 -260 -3 2 18 54 45 115
153 344 229 699 230 1079 0 220 -12 354 -51 547 -99 498 -347 963 -705 1322
-369 370 -843 610 -1359 690 -123 19 -448 27 -570 14z m615 -43 c775 -134
1419 -622 1779 -1347 120 -241 191 -458 242 -744 21 -116 23 -160 24 -420 0
-256 -3 -305 -23 -420 -46 -267 -116 -492 -218 -705 l-56 -117 -111 -47 c-311
-132 -589 -183 -942 -173 -360 9 -623 76 -963 244 -141 69 -174 81 -158 54 10
-15 139 -84 244 -130 190 -84 387 -143 592 -178 148 -25 572 -25 710 1 191 35
403 98 545 161 30 13 55 22 55 19 0 -12 -121 -197 -184 -282 -339 -453 -810
-771 -1340 -907 -621 -158 -1281 -57 -1826 280 -283 176 -566 447 -749 719
-437 648 -563 1457 -345 2212 175 610 567 1132 1094 1459 293 181 670 310
1010 344 163 17 454 6 620 -23z"/>
<path d="M3202 3375 c-34 -24 -70 -94 -94 -181 -29 -106 -32 -391 -5 -497 25
-99 64 -175 101 -198 43 -26 53 -24 96 19 124 124 146 563 39 780 -41 83 -89
110 -137 77z"/>
<path d="M4101 3352 c-73 -77 -106 -235 -98 -467 7 -202 45 -331 113 -384 34
-26 54 -26 88 0 68 53 106 182 113 384 8 230 -25 391 -97 467 -47 49 -73 49
-119 0z"/>
</g>
</svg>
